<svg width="12" height="12" viewBox="0 0 12 12" fill="none" xmlns="http://www.w3.org/2000/svg">
<path d="M7.76999 5.64499L4.93999 2.81999C4.89351 2.77312 4.83821 2.73593 4.77728 2.71054C4.71635 2.68516 4.651 2.67209 4.58499 2.67209C4.51899 2.67209 4.45363 2.68516 4.3927 2.71054C4.33177 2.73593 4.27647 2.77312 4.22999 2.81999C4.13687 2.91367 4.08459 3.04039 4.08459 3.17249C4.08459 3.30458 4.13687 3.43131 4.22999 3.52499L6.70499 6.02499L4.22999 8.49999C4.13687 8.59367 4.08459 8.72039 4.08459 8.85249C4.08459 8.98458 4.13687 9.11131 4.22999 9.20499C4.2763 9.25223 4.33152 9.28982 4.39246 9.31557C4.4534 9.34131 4.51884 9.35471 4.58499 9.35499C4.65114 9.35471 4.71659 9.34131 4.77752 9.31557C4.83846 9.28982 4.89368 9.25223 4.93999 9.20499L7.76999 6.37999C7.82074 6.33317 7.86125 6.27634 7.88895 6.21309C7.91666 6.14984 7.93096 6.08154 7.93096 6.01249C7.93096 5.94344 7.91666 5.87513 7.88895 5.81188C7.86125 5.74863 7.82074 5.69181 7.76999 5.64499Z" fill="#BDBDBD"/>
</svg>
