<svg width="30" height="28" viewBox="0 0 30 28" fill="none" xmlns="http://www.w3.org/2000/svg">
<path d="M14.1044 0.802445C14.4721 0.0623889 15.5279 0.0623895 15.8956 0.802446L19.4887 8.0342C19.6343 8.32727 19.9141 8.53054 20.2378 8.57847L28.2259 9.76099C29.0434 9.88201 29.3696 10.886 28.7794 11.4644L23.0119 17.1164C22.7782 17.3455 22.6714 17.6744 22.7258 17.9971L24.0696 25.9597C24.2071 26.7745 23.3531 27.395 22.6206 27.0125L15.463 23.2738C15.1729 23.1223 14.8271 23.1223 14.537 23.2738L7.3794 27.0125C6.64693 27.395 5.79285 26.7745 5.93037 25.9597L7.27419 17.9971C7.32865 17.6744 7.22178 17.3455 6.98806 17.1164L1.22058 11.4644C0.630372 10.886 0.956603 9.88201 1.77406 9.76099L9.76221 8.57847C10.0859 8.53054 10.3657 8.32727 10.5113 8.0342L14.1044 0.802445Z" fill="#E9AF53"/>
</svg>
